<?xml version="1.0" encoding="utf-8"?>
<!-- Generator: Adobe Illustrator 26.0.3, SVG Export Plug-In . SVG Version: 6.00 Build 0)  -->
<svg version="1.1" id="Vrstva_1" xmlns="http://www.w3.org/2000/svg" xmlns:xlink="http://www.w3.org/1999/xlink" x="0px" y="0px"
	 viewBox="0 0 481.9 283.5" style="enable-background:new 0 0 481.9 283.5;" xml:space="preserve">
<style type="text/css">
	.st0{fill:#B9453D;}
	.st1{fill:#3DA4D7;}
</style>
<path class="st0" d="M103.9,254.9c-0.9-0.1-1.8-0.3-2.9-0.6c-0.4-0.1-0.9-0.2-1.3-0.3c-0.7-0.1-1.4-0.3-2-0.6
	c-1.7-0.8-2.1-2.5-2.2-3.3c0-0.1-0.1-0.3-0.1-0.5c0-0.1,0-0.1,0-0.2c-0.3-1.5,0.3-2.7,0.7-3.7c0.2-0.4,0.4-0.8,0.5-1.2
	c0.1-0.5,0.2-1,0.3-1.6c-1.5-0.7-2.4-1.6-2.7-2.8c0-0.1,0-0.2-0.1-0.4c-0.2-2,0.6-3.8,1.2-4.8c0.1-2.9,0.8-15.8,1.8-22.6
	c0.8-5.6,0.6-16.6,0.5-21.9c0-2-0.1-2.7,0-3.1c0-0.5-0.2-5.2-0.4-9.7c-0.4-8.6-1-20.3-1-23.9c0,0,0-0.1,0-0.1
	c0.3-4.7,0.5-10.8,0.6-12.7c-1.3,0.3-2.6,0.3-3.5-0.7c-0.5-0.6-0.7-1.3-0.5-2.1c0.2-0.9,0.8-3.7,0.9-5.3c0-1.8-3.2-15.3-4.3-18.8
	c-0.4-1.2-0.6-2.2-0.8-3c-0.3-1.5-0.5-2.1-1-2.7c-0.6-0.7-0.9-1.1-1.1-1.5c-0.1,0-0.2-0.1-0.3-0.1c-0.1,0-0.2-0.1-0.3-0.1
	c-0.8-0.5-1.1-0.7-1.4-0.9c-0.1-0.1-0.1-0.1-0.5-0.3c-1-0.2-1.6-0.9-1.8-2.1c-1.2-0.7-2.6-1.5-3.6-2.3c0,0-0.1-0.1-0.1-0.1
	c-1.9-1.9-7.8-6.7-9.7-8l-0.4-0.3c-1.8-1.2-3.1-2.1-5.7-3.3c-0.1,0-0.1-0.1-0.2-0.1c-0.8-0.5-2.1-1.1-3.6-1.9
	c-5-2.5-8.2-4.2-9.4-5.9c-1-1.1-1.6-1.6-1.8-1.8c-0.5-0.1-1.2-0.2-2.2-0.3c-0.5-0.1-1-0.2-1.1-0.2l-2.1-0.1c-0.9-0.1-2.1-0.6-2.9-1
	c-0.3-0.1-0.5-0.3-0.8-0.6C38,77,37.6,76,37.9,75c-1.4-0.7-2.5-1.4-3.2-2.5c-0.1-0.1-0.1-0.2-0.2-0.4c-0.8-2-0.3-3.7-0.2-4.1
	c0.2-0.8,0.9-1.3,1.6-1.6c0.8-0.2,1.6,0,2.2,0.5c0,0,2.2,1.9,4.9,2.6c0.1,0,0.1,0,0.2,0.1c1.3,0.5,2.7,0.7,3.9,0.9
	c1.7,0.3,3.2,0.6,4.3,1.3c0.8,0.4,1.7,1.1,2.8,1.9c1,0.7,2.1,1.5,3,2c7.1,2.6,11.5,4.5,13.4,6c0.9,0.7,1.8,1.3,2.8,1.9
	c1.6,1,3.2,2.1,5.1,3.8c1.4,1.1,4,2.3,7.6,3.7c0.7-0.3,1.5-0.3,2.1,0.1c0.1,0,0.7,0.3,1.3,0.5c1.5,0.6,3.9,1.4,5.7,2.4
	c0.8,0.4,1.4,0.8,1.9,1c0.3-0.9,0.6-2.4,0.7-3.6l0-0.2c-0.1-0.2-0.3-0.5-0.4-0.8c-0.6-0.4-1.2-0.9-2-1.8c-0.1-0.1-0.1-0.2-0.2-0.3
	c-0.6-1-1-1.7-0.9-2.7c-0.3-0.3-0.6-0.8-0.8-1.4c-0.1-0.2-0.1-0.4-0.2-0.6c-0.3-2.2,0.3-4.2,1-5.8c0.4-1.7,1.3-3,1.8-3.7
	c0,0,0,0,0,0c0.3-0.9,1-2,2.9-2.1c0,0,0.1,0,0.1,0c0.1,0,0.1,0,0.2,0c0.2-0.1,0.2-0.1,0.2-0.1c0.1-0.1,0.3-0.3,0.8-0.8
	c1.1-1.3,2.8-1.5,4.2-1.1c1.9-0.2,5.3-0.2,7.3,1.7c0.5,0.4,0.8,0.8,1.1,1c1.1,1,1.8,1.7,2.1,3.3c0.3,0.8,0.4,1.6,0.4,2.3
	c0.1,0.7,0.1,1.3,0.4,2c0.9,1.8,1,2.9,1,3.6c0,0.4-0.1,0.9-0.3,1.8c-0.1,0.4-0.2,1-0.2,1.4l1-1.1c0.3-0.3,0.7-0.6,1.2-0.6
	c1.6-2.8,3.7-6.1,5.5-9c1.6-2.6,3.4-5.5,3.7-6.1c1.7-4.5,4.9-8.3,8-11.8c1.6-1.8,3-3.5,4.2-5.2c0,0,0.1-0.1,0.1-0.1
	c1.5-1.9,2.6-3.5,3.4-4.7c0.4-0.6,0.7-1.1,0.9-1.4c0.4-0.5,0.9-1,1.5-1.6c0.6-0.6,1.7-1.7,1.9-2.1c0.1-0.1,0.2-0.3,0.3-0.4
	c0.6-0.7,1.1-1.3,1.7-2c0.6-0.7,1.2-1.5,1.8-2.2c1.1-1.4,3.9-3.9,6.2-3.8l0,0c1,0.1,1.8,0.6,2.3,1.4c0.1,0.2,0.2,0.4,0.2,0.6
	c0.2,0.9,0.5,2.9-1.7,4.7c0.5,0.2,0.9,0.6,1.3,1.3c0.4,0.6,0.7,1.1,0.6,2.1c-0.1,1.3-1,1.9-2.3,2.7c-0.3,0.2-0.9,0.6-1.1,0.8
	c-0.2,0.3-0.5,0.5-0.8,0.7c-0.1,0.2-0.3,0.3-0.5,0.5c0,0-0.1,0.1-0.2,0.2c-0.4,0.5-1,1.3-2.4,1.9c-1.2,0.5-2.6-0.1-3.1-1.3
	c-0.4-0.9-0.2-1.9,0.4-2.5c-0.1-0.1-0.3-0.3-0.4-0.4c-0.4,0.4-0.8,0.8-1.2,1.2c-0.4,0.4-1,1-1.1,1.2c-0.2,0.2-0.4,0.6-0.8,1.1
	c-0.8,1.2-1.9,2.9-3.6,5c-1.3,1.9-2.9,3.7-4.5,5.5c-2.9,3.3-5.9,6.7-7.2,10.4c-0.2,0.7-1,2-4.1,6.9c-2.3,3.7-5.2,8.4-6.6,11.2
	c-0.4,0.8-1.3,1.3-2.2,1.3c-0.1,0-0.2,0-0.3,0l-0.1,0.1c-0.1,0.1-0.2,0.2-0.3,0.2c-1.4,1-2.9,3.4-3.7,4.7c-0.3,0.5-0.6,1-0.8,1.2
	c0,0-0.1,0.1-0.1,0.1c-1.1,1.3-2.4,1.4-3,1.3c-0.3-0.1-0.6-0.2-0.9-0.3c-0.2,0-0.4-0.1-0.6-0.1c-0.8-0.3-1.4-1.1-1.5-1.9
	c0-0.5-0.1-1.5-0.2-2.3c-0.4-1.5,0.1-3.5,1.3-4.6c0.3-0.3,0.7-0.5,1-0.7c0.1-0.1,0.2-0.1,0.3-0.2c0.2-0.2,0.5-0.4,0.8-0.5
	c0.1-0.3,0.3-0.6,0.4-1c0.1-0.6,0.2-1.4,0.3-2.2c0.1-0.5,0.2-1.2,0.2-1.4c0,0,0-0.4-0.5-1.2c0-0.1-0.1-0.1-0.1-0.2
	c-0.6-1.4-0.7-2.6-0.7-3.5c0-0.5-0.1-0.9-0.2-1.1c-0.1-0.2-0.1-0.3-0.1-0.5c0-0.1,0-0.2-0.1-0.2c0,0-0.4-0.4-0.7-0.7
	c-0.3-0.3-0.6-0.6-1.1-1c-0.4-0.3-2.1-0.6-4-0.4c-0.4,0.1-0.8,0-1.1-0.1c-0.8,0.9-1.5,1.5-2.8,1.9c-0.2,0.1-0.4,0.1-0.5,0.1
	c0,0.1-0.1,0.1-0.1,0.2c-0.4,0.6-0.9,1.3-1.1,2.3c0,0.1-0.1,0.2-0.1,0.3c-0.6,1.4-0.8,2.4-0.8,3.3c0.1,0.1,0.2,0.2,0.3,0.4
	c0.6,0.7,0.9,1.3,0.8,2.3c0,0.1,0,0.1,0,0.2c0,0,0,0,0,0.1c0.5,0.6,0.9,0.8,1.3,1c0.4,0.2,0.6,0.5,0.8,0.9c1,1.7,1.4,2.5,1.4,3.5
	l0,0.6c-0.1,1.3-0.5,4-1.4,5.7c-0.2,0.6-0.5,1.2-0.9,1.8c-0.4,0.8-1.3,1.2-2.2,1.2c-0.9-0.1-1.6-0.5-2.8-1.2
	c-0.5-0.3-1.3-0.7-2.2-1.2c-1.6-0.8-3.7-1.6-5.1-2.1c-0.1,0-0.2-0.1-0.3-0.1c-0.5,0.2-1.1,0.2-1.7,0c-4.9-1.8-8.3-3.4-10.3-4.9
	c-0.1,0-0.1-0.1-0.2-0.1c-1.6-1.5-3-2.4-4.6-3.4c-1-0.6-2-1.3-3.1-2.1c-0.7-0.5-3.3-2.1-12.3-5.4c-0.1,0-0.2-0.1-0.3-0.1
	c-0.6-0.3-1.2-0.7-1.8-1.1c0.9,0.9,5.2,3.1,7.5,4.2c1.5,0.8,2.8,1.4,3.7,1.9c2.8,1.4,4.4,2.4,6.2,3.6l0.4,0.3
	c2.1,1.4,8.2,6.4,10.4,8.5c0.7,0.6,2,1.3,3,1.9c0.4,0.2,0.7,0.4,1,0.6c0.6,0.4,1,1,1.1,1.7c0.1,0.1,0.2,0.2,0.4,0.2
	c0.1,0.1,0.3,0.2,0.9,0.6c1.3,0.6,1.9,1,2.4,2c0.1,0.2,0.2,0.4,0.6,0.8c1.3,1.5,1.7,3.1,2.1,4.7c0.2,0.8,0.4,1.6,0.7,2.6
	c0.9,2.6,4.7,17.9,4.6,20.6c0,0.6-0.1,1.4-0.3,2.1c0.5-0.2,1.2-0.3,1.7-0.1c0.6,0.2,1.1,0.7,1.4,1.3c0.4,0.9,0.4,1.7,0.4,2.4
	c0.3,0.8,0.2,1.4,0.2,2c0,0.4-0.1,0.7-0.3,1c-0.1,2.5-0.3,7.7-0.5,11.9c0,3.6,0.5,15.1,1,23.6c0.4,7.7,0.5,9.7,0.4,10.3
	c0,0.2,0,1.4,0,2.6c0.1,5.4,0.4,16.7-0.5,22.7c-1.1,7.3-1.8,22.5-1.8,22.7c0,0.4-0.2,0.8-0.4,1.2c-0.3,0.4-0.6,1.1-0.7,1.7
	c0.4,0.2,1.1,0.4,2.2,0.7c1.1,0.2,1.9,1.2,1.9,2.3c0,0.9-0.6,1.8-1.4,2.1c-0.1,0.7-0.2,1.4-0.4,2c-0.2,0.7-0.5,1.4-0.7,1.9
	c-0.1,0.3-0.3,0.8-0.4,1c0,0.2,0.1,0.4,0.1,0.6c0,0,0,0,0,0c0.2,0,0.4,0.1,0.6,0.1c0.5,0.1,1.1,0.2,1.8,0.4c1.1,0.3,1.7,0.4,2,0.4
	c0-0.1,0-0.2,0-0.5c0,0,0-0.1,0-0.1c0-0.4-0.1-0.8-0.2-1.2c-0.3-1.6-0.7-3.5-0.3-5.3c0.1-0.5,0.3-0.9,0.6-1.3
	c0.1-0.2,0.3-0.5,0.5-0.6c0.4-0.3,0.9-0.5,1.4-0.6c0.2-0.2,0.4-0.6,0.5-1c0.2-1.2,1-8.7,0.2-16.2c-0.7-8.8,1-15.3,1.8-18.2
	c0.5-3,0.9-14.6,0.6-16.3c-0.3-0.8-0.9-2.9,1.6-16.8c1.4-7.6,3.3-9.2,6.9-9.9l0.4-0.1c2.3-0.4,3.4,0.3,4.3,1.5
	c0.3,0.4,0.5,0.7,1.5,1.1c2.6,1.1,3.7,2.7,4.7,4c0.5,0.7,1,1.3,1.6,1.9c0,0,0.1,0.1,0.1,0.1c1.1,1,3.2,4.3,7,10.1
	c3.1,4.7,6.9,10.5,8.3,11.9c2.3,2.4,3.1,4.3,3.8,5.9c0.4,0.8,0.7,1.6,1.1,2.3c0,0,0,0.1,0.1,0.1c1.6,2.8,10.7,17.1,12.3,19.5
	c0.1,0.1,0.1,0.2,0.2,0.3c1.3,2.7,4.1,5.8,5.2,6.1c1.1-0.3,1.5-0.6,2.9-1.9c0.9-0.8,2.3-0.8,3.2,0.1c0.2,0.1,0.5,0.3,0.8,0.6
	c1.6,1.4,3,4,4.4,6.9c0.2,0.4,0.4,0.8,0.5,1.1c0.4,0.7,2.8,2.2,4,2.7c0.2-0.1,0.5-0.2,0.7-0.2c0.1,0,0.2-0.1,0.4-0.1
	c0.1-0.3,0.1-0.7,0.2-1.4c0-0.5-0.2-1-0.5-1.8c-0.2-0.5-0.5-1.1-0.6-1.8c0-0.1,0-0.1-0.1-0.1c-0.2-0.1-0.6-0.2-1-0.4l-0.7-0.2
	c-1.8-0.6-3.4-2.1-4.8-3.4c-0.5-0.4-0.9-0.8-1.2-1.1c-0.2-0.1-0.4-0.2-0.6-0.4c-0.5-0.3-0.9-0.7-1.1-1.3c-0.3-0.9,0-1.9,0.7-2.5
	c0.1-0.1,0.3-0.2,0.4-0.3c-0.2-0.4-0.3-0.8-0.3-1.3c0.1-1.3,1.2-2.3,2.5-2.2c2.3,0.1,3,1.5,3.2,2.1c0.4,1.2,0,2.2-0.6,3.2
	c0.1,0.1,0.2,0.2,0.4,0.3c1.1,0.9,2.4,2.1,3.3,2.4l0.6,0.2c1.7,0.6,3.2,1.1,4,3.6c0,0.1,0.1,0.2,0.1,0.3c0,0.2,0.2,0.5,0.3,0.9
	c0.4,1,1,2.3,0.9,4c-0.1,1.5-0.3,4.3-2.6,5.3c-0.1,0-0.2,0.1-0.3,0.1c-0.2,0.1-0.5,0.2-0.7,0.2c-0.8,0.3-1.7,0.6-2.8,0.6
	c-0.2,0-0.4-0.1-0.6-0.1c-1.1-0.4-5.9-2.6-7.2-5.2c-0.2-0.3-0.4-0.7-0.6-1.2c-0.5-1.1-1.7-3.5-2.6-4.7c-0.9,0.7-1.9,1.2-3.5,1.6
	c-0.1,0-0.1,0-0.2,0c-4.5,0.8-9-6.4-10.2-8.6c-1.8-2.7-10.6-16.6-12.3-19.5c-0.7-1.1-1.1-2.1-1.5-3c-0.6-1.5-1.1-2.7-2.8-4.5
	c-1.5-1.6-4.5-6-8.8-12.6c-2.5-3.7-5.5-8.4-6.3-9.2c-1.1-0.9-1.7-1.8-2.3-2.6c-0.8-1.1-1.3-1.8-2.7-2.5c-1.7-0.7-2.5-1.5-3.1-2.2
	l-0.3,0.1c-1.2,0.2-2.1,0.4-3.2,6.2c-1.8,9.8-1.9,13.8-1.7,14.5h0c0.8,2.8-0.1,16.7-0.5,18.6c0,0.1,0,0.2,0,0.2
	c-0.7,2.6-2.3,8.7-1.7,16.7c1,8.7-0.2,17.1-0.2,17.5c0,0.1,0,0.2-0.1,0.3c-0.4,1.6-1.4,3.4-3,4.2c0,0.8,0.2,1.8,0.4,2.7
	c0.1,0.5,0.2,1,0.3,1.4c0.4,2.2-0.5,4.3-2.3,5.4C106,254.8,105.1,254.9,103.9,254.9L103.9,254.9z"/>
<g>
	<path class="st0" d="M443.1,190.9c-2.9-0.3-4.4-1.8-4.6-4.2c-0.1-2.5,0.4-5,1.8-7.5c1.4-2.4,3.7-3.9,6.2-7.5c2.5-3.6,0-6,0-6
		s2.3,4.6-5.3,8.4c-3.7,1.9-5.1,7.5-7.4,8.8c-2.6,1.4-6.2,1.7-8.4,1.2c-2.2-0.5-4.8-1.3-12.9-3.6c-3.2-0.9-6.9-1.9-11-3.1l0-0.1
		c0.3-0.9-0.2-1.7-1.1-2l-7.2-2.2c-0.8-0.3-1.7,0.2-2,1.1l-0.1,0.2c-0.7-0.2-1.5-0.4-2.3-0.6l0,0c0.3-0.9-0.2-1.8-1.1-2l-7.2-2.2
		c-0.9-0.3-1.8,0.2-2,1.1l0,0.1c-0.7-0.2-1.4-0.4-2.1-0.6l0-0.1c0.3-0.9-0.2-1.7-1.1-2l-7.2-2.2c-0.8-0.3-1.7,0.2-2,1.1l0,0.1
		c-0.7-0.2-1.3-0.4-1.9-0.6l0-0.1c0.3-0.8-0.2-1.8-1-2l-7.1-2.4c-0.8-0.3-1.8,0.2-2,1l0,0.1c-0.5-0.2-1-0.4-1.5-0.5l0-0.1
		c0.3-0.8-0.1-1.8-0.9-2.1l-7-2.8c-0.8-0.3-1.8,0.1-2.1,0.9l0,0.1c-1.1-0.5-1.7-0.8-2-1c0-0.1-0.1-0.1-0.1-0.2l0.5-0.3
		c0.8-0.5,1-1.5,0.5-2.2l-4-6.4c-0.5-0.8-1.5-1-2.2-0.5l-0.3,0.2c-0.3-0.5-0.6-0.9-1-1.4l0.3-0.2c0.7-0.5,0.9-1.5,0.4-2.2l-4.3-6.1
		c-0.5-0.7-1.5-0.9-2.2-0.4l-0.3,0.2c-0.4-0.6-0.8-1.1-1.2-1.7l0.2-0.2c0.7-0.5,0.9-1.5,0.3-2.3l-4.5-6c-0.5-0.7-1.5-0.9-2.3-0.3
		l-0.1,0.1c-0.4-0.6-0.9-1.2-1.3-1.8l0,0c0.7-0.5,0.9-1.5,0.3-2.3l-4.5-6c-0.5-0.7-1.5-0.9-2.3-0.3l-0.1,0.1c-0.5-0.6-1-1.3-1.4-1.9
		c0.6-0.6,0.7-1.5,0.2-2.1l-4.5-6c-0.5-0.6-1.3-0.8-2-0.4c-1.2-1.7-1.9-2.9-2.1-3.2c-1.3-2.2-1.2-4.9,0.3-6.6
		c1.5-1.7,8.4-1.1,10.6-0.9c5,0.3,18.2,1.9,20.3,1.8c2.1-0.2,22.1-5.7,25.1-5.7c3.1,0,4.4,1.3,8.2,0.9c3.8-0.4,5.9-0.9,7.6-0.1
		c1.7,0.7,3.4,3,3.4,3s-0.7-4-4.9-4.7c-4.2-0.8-5.9,0.6-8.7,0c-2.8-0.6-1.3-1.3,0-2.5c1.3-1.1,3.5-3.8,3.8-7
		c0.2-1.7-0.8-4.5,0.8-6.4c1.5-1.9,4.5-1.6,4.5-1.6s-4.4-1.4-6.6,0.8c-1.9,1.8-1.3,3.9-1.3,5.9c0,2-1.4,5-2.7,5.9
		c-2.1,1.4-3,1.4-2-1.4c0.9-2.8,0.8-4.5-0.3-5.5c-1.1-0.9-4.7-1.1-4.7-1.1s2.9,1.2,3.6,2.7c1.3,2.6,0,4.5-2.6,5.7
		c-2.6,1.2-19.2,5.8-21.7,6.2c-2.5,0.3-14-1.6-20.1-1.7c-1.9-0.1-7.6-3.7-11.3-7c0,0,0.1-1.5,2.8-2.5c0.5-0.2,1-0.3,1.6-0.5
		c2.5-0.6,2.8-1.7,4.6-1.9c1.8-0.2,4.5,1.7,7.4,2.2c2.8,0.6,4.3-2.2,4.3-2.2s-1.9,1.2-4.3,0.9s-3.5-2.6-5.5-2.7
		c-1.5-0.1-2.3,0-3.6,0.6c0.5-0.7-0.1-2.5,1-3.8c1.1-1.3,4.5-0.6,4.5-0.6s-1.6-1.8-4.1-1c-1.2,0.4-2.6,2.1-2.7,3.7
		c0,0.7-0.2,1.3-0.5,1.8c-0.4,0.6-1.2,1-2.4,1.2c-2.2,0.3-5.9-1.1-5.9-1.1c0.3-1.3,1-2.5,2.4-3.2c3.7-2.1,3.6-4.5,4.5-5.5
		c0.9-0.9,3.6-4,5.8-4.9c2.2-0.9,4.6-4.5,4.9-5.5c0.3-0.9,0.3-3.3,0.5-4.4c0.3-1.1,2-2.1,2-2.1s-2.2,0-3,2c-0.8,2-0.4,3.6-0.8,4.8
		c-0.4,1.2-2.3,3.5-5,4.5c-2.7,1.1-4.9,4.1-4.8,3.2c0.1-0.9-0.4-3.3-0.2-4.7c0.2-1.4,5-3.2,5-7.1c0-1.5-0.8-2.5-0.8-3.6
		c-0.1-1.1,0.5-2.6,0.5-2.6s-0.8,0-1.3,1.8c-0.4,1.8,0.4,2,0.3,3.9c-0.1,1.9-1.8,3.8-2.8,4.4c-1,0.6-1.5,1.3-1.5,1
		c0-0.3-0.9-4.2-0.9-4.9c-0.1-0.7-0.1-2.2,0.9-4c1.1-2.1,1.6-5.2,1.6-6.4c0-2.3-1.1-4.5-1.1-4.5c0.6,1.9,0.6,6.8-1.8,10.1
		c-2.4,3.3,0,11.2,0,15.1c0,3.9-3.7,7.8-5.6,8c-3.8,0.4-6.4-2.2-6.1-6.7c0.3-4.5-0.3-5.9,0.5-8.7c0.8-2.7,0.8-3.9,4.3-6.4
		c3.5-2.6,1.9-9.6,1.9-9.6s0.2,3.9-0.7,6c-0.9,2.1-2.8,2.2-4.2,3.7c-1.4,1.5-2.6,4.4-2.6,4.4s-0.9-1.6-1.2-3.9
		c-0.3-2.3-1.1-4.1-1.4-5.3c-0.3-1.2,2.4-3.3,4.5-6.1c2.2-2.7,0.1-6.9-0.1-8.9c-0.2-2,1.6-4,1.6-4s-4,2-2.2,6.3
		c1.8,4.4-2.6,8.2-4,9.4c-1.4,1.1-1.7,2.7-1.7,2.7c-1.9-2.6-4.2-3-5.9-4.1c-1.7-1-4.8-6.1-4.8-6.1c0.3,2.4,4.5,7.4,6.8,8.5
		c2.3,1,5.4,4.9,5.4,9.2c0,4.3,2.3,5.5,1.2,10.6c-0.6,2.8-2.2,4.4-4.8,5.3c-3.1-2.1-3.3-5.3-3.1-6.7c0.2-1.4,0.7-2,1.6-3.2
		c0.9-1.1,2.7-2.5,2.7-2.5c-3.2,0.4-4.5,3.8-4.8,1.9c-0.2-1.9,0.7-3.5,1.1-5.3c0.4-1.8,2.5-4.5,2.5-4.5s-1.2,1.3-2.5,2.9
		c-1.4,1.6-2.4,6.2-2.3,7.8c0.1,1.6-0.2,7.2-2.5,10.2c-1.6-0.1-3.4-0.2-5.3-0.5c-8.1-1-6.3-4.4-7.6-6.6c-1.3-2.2-3.8-5.9-2.5-8.6
		c1.3-2.7,3.8-4.9,3.8-4.9s-4,1.9-5.2,4.9c-1.2,2.9,0,5.7,0,5.7s-1.8-1.3-3.7-1.6c-3.3-0.6-6.3,1.9-9.6,0.8c-2.9-1-3.7-6.1-3.7-6.1
		s-0.8,4.7,2.9,7.4c2.8,2,6.8-0.6,9.7-0.3c2.9,0.4,5.9,3.5,6.3,4.9c0.4,1.4-1.4,0.3-3.8,1.5c-2.4,1.3-4.4,5.4-5.3,6.4
		c-0.9,0.9-5.4,1.1-6.1,1c0,0,3.7,1.5,6.3,0.2c2.6-1.3,3.8-6.1,6.6-6.1c2.8,0,4-0.3,4.9,1.1c2.1,3.3,7.2,3.2,8.4,7.1
		c0.7,2.4-2.2,9.3-5.1,8.5c-3-0.8-2.2-6.3-7.3-6.8c-2.5-0.2-7.6,1.6-7.6,1.6s6.6-0.9,8.8,0.8c2,1.4,2,4.1,2,4.1s-2.4,0.1-5.1,0.7
		c-2.7,0.6-5.8,1.9-9.3,2.2c-4.8,0.4-5.5-0.7-11.7-0.5c-4.2,0.2-5.9,1.7-5.9,1.7c2.2-0.9,8-0.3,11.9,0.7c3.9,1,10.9-0.7,10.9-0.7
		s-4.6,3.3-6.2,6.4c-1.4,2.6-2.1,3.7-4,4.1c-3.3,0.6-7-1-7-1s3.3,3.3,7.5,2.5c3.7-0.7,4.7-3.8,6.3-5.9c1.7-2.1,7.3-6.4,12.3-7.1
		c1.5-0.2,5.8-0.3,9.1,1c0,0,1.5,3.6,1.1,4.8c-0.4,1.2-2.3,3.3-4,3.1c-1.8-0.2-3.7-0.2-4.9,0.3c-1.8,0.7-2.7,2.9-5.5,3.5
		c-2.2,0.4-4.7-1.3-4.7-1.3s0.7,1.4,2.9,2.1c2.1,0.6,4.1-0.3,5-0.9c1.1-0.7,2.3-1.8,3-1.8c0.9,0-0.4,0.6-0.7,1.9
		c-0.3,1.2-1.3,2.6-2.4,2.9c-2.4,0.8-1.9,2.9-1.9,2.9s0.5-1.5,2.2-2.2c1.3-0.5,2.7-1.4,3.2-2.8c0.5-1.4,1.6-2.7,3.6-3
		c4.1-0.5,4.3-1.7,6.4-2.6c1.3-0.5,3-0.3,3-0.3c0.2,2.7,0,5.7-0.5,7.4c-1.2,4-3.8,7.2-4.7,9c-2.6,5-6,8.7-7.4,15.4
		c-1.6,7.4-3.3,17.6-4,20.7c-0.8,3.2-7.3,5.7-10.1,4.9c-2.8-0.7-6.5-0.5-8.1,1.8c-2.5,3.6-2.5,6.5-2.5,6.5s3-4.6,4.3-5.5
		c2.6-1.8,8.9-0.2,8.9-0.2s-1.4,1.8-1,5.7c0.4,4.4-1.9,6.2-3.7,7.9c0,0,3.4-1,4.3-2.5c2.4-4,1-11.1,5.3-13c4.3-1.9,5.1-6.2,5.1-6.2
		s3.6,3.7,3.3,6.5c-0.3,2.8-2.1,4-1.1,7c1.1-3.5,2.8-3.3,3.2-6.7c0.4-3.5-3.6-9.8-3.3-13.9c0.4-4.4,2-8,3.7-13.4
		c1.8-5.5,6.2-10.5,9-15c3.1-4.8,7.1-8.7,10.3-9.3c3.2-0.7,6.4,0.2,8.1,2c0.4,0.4,1.3,1.5,2.7,3.2l-0.1,0c-0.7,0.5-0.9,1.5-0.3,2.3
		l4.5,6c0.5,0.7,1.5,0.9,2.3,0.3l0.2-0.2c0.5,0.6,1,1.2,1.4,1.9l0,0c-0.7,0.5-0.9,1.5-0.3,2.3l4.5,6c0.5,0.7,1.5,0.9,2.3,0.3
		l0.1-0.1c0.5,0.6,0.9,1.2,1.4,1.8l-0.1,0c-0.7,0.5-0.9,1.5-0.3,2.3l4.5,6c0.5,0.7,1.5,0.9,2.3,0.3l0.1-0.1c0.4,0.6,0.8,1.1,1.2,1.6
		l0,0c-0.7,0.5-0.9,1.5-0.4,2.2l4.3,6.1c0.5,0.7,1.5,0.9,2.2,0.4l0.1-0.1c0.3,0.5,0.6,0.9,0.9,1.3l-0.1,0.1c-0.8,0.5-1,1.5-0.5,2.2
		l4,6.4c0.5,0.7,1.4,0.9,2.1,0.5c0.3,0.8,0.4,1.3,0.4,1.6c0,0.4,0,0.9-0.1,1.6c-0.8,0-1.5,0.7-1.5,1.5l-0.2,7.5
		c0,0.9,0.6,1.5,1.5,1.6c0,0.7,0,1.4,0,2.2c-0.8,0.1-1.5,0.7-1.5,1.5l-0.2,7.5c0,0.8,0.6,1.5,1.4,1.6c0,0.7,0,1.5,0,2.2
		c-0.8,0-1.5,0.7-1.5,1.5l-0.2,7.5c0,0.9,0.7,1.6,1.5,1.6c0,0.7,0,1.4,0,2.2c-0.9,0-1.6,0.7-1.7,1.6l-0.2,7.5c0,0.9,0.7,1.6,1.6,1.7
		l0,0c0,0.7,0,1.4-0.1,2.1l-0.1,0c-0.9,0-1.6,0.7-1.7,1.6l-0.2,7.5c0,0.9,0.7,1.6,1.6,1.7l0.1,0c-0.1,4.2-0.2,8.1-0.4,11.4
		c-0.2,4.7-0.6,6.5-1.1,8.5c-0.6,2-1.2,3.7-5.8,4.7c-4.7,0.9-6.4-0.5-10,0.1c-2.9,0.5-4.2,2.6-4.2,2.6s2.7-1.6,4.6-1.6
		c2.9-0.1,3.3,0.9,7.1,0.5c0,0,0.3,1.4-0.8,2c-1.1,0.5-2.1,0.3-3.4,0.7c-1.9,0.6-2.1,2.7-2.1,2.7s0.7-1.6,3.1-1.8
		c2.4-0.2,3.4-0.1,4.5-1c1.1-1,1.1-2.1,2.6-2.3c1.5-0.2,3.3-0.5,4.3-1c1.5-0.7,2-1.9,2-1.9s0.5,1.3,2.8,1.1c2.3-0.3,5.6,0.4,6.6-1.7
		c1-2.1,4.2-2.7,4.2-2.7s-3.1-1.1-4.9,0.5c-1.8,1.6-2.1,2-4.2,1.9c-2.1-0.1-3-0.5-3.6-2.4c-0.5-1.9-0.1-2.9,0-5.5
		c0.1-3.8,0.3-8.9,0.4-14.6l0.2,0c0.9,0,1.6-0.7,1.7-1.6l0.2-7.5c0-0.9-0.7-1.6-1.6-1.7l-0.2,0c0-0.7,0-1.4,0.1-2.1l0.3,0
		c0.9,0,1.6-0.7,1.7-1.6l0.2-7.5c0-0.9-0.7-1.6-1.6-1.7l-0.3,0c0-0.7,0-1.4,0-2.1l0.4,0c0.9,0,1.6-0.7,1.7-1.6l0.2-7.5
		c0-0.9-0.7-1.6-1.6-1.6l-0.4,0c0-0.7,0-1.4,0-2.1l0.4,0c0.9,0,1.6-0.7,1.7-1.6l0.2-7.5c0-0.9-0.7-1.6-1.6-1.7l-0.5,0
		c0-0.7,0-1.5,0.1-2.1l0.4,0c0.9,0,1.6-0.7,1.7-1.6l0.2-7.5c0-0.2,0-0.3-0.1-0.4l6.6,2.6c0.8,0.3,1.8-0.1,2.1-0.9l0.1-0.2
		c0.5,0.2,1.1,0.4,1.6,0.6l0,0.1c-0.3,0.8,0.2,1.8,1,2l7.1,2.4c0.8,0.3,1.8-0.2,2-1l0.1-0.2c0.6,0.2,1.3,0.4,2,0.6l0,0.2
		c-0.3,0.8,0.2,1.7,1.1,2l7.2,2.2c0.8,0.3,1.7-0.2,2-1.1l0.1-0.2c0.7,0.2,1.4,0.4,2.1,0.6l0,0.1c-0.3,0.8,0.2,1.7,1.1,2l7.2,2.2
		c0.9,0.3,1.8-0.2,2-1.1l0.1-0.2c0.8,0.2,1.5,0.4,2.3,0.6l0,0c-0.3,0.8,0.2,1.7,1.1,2l7.2,2.2c0.9,0.3,1.8-0.2,2-1.1l0.1-0.2
		c3.8,1.1,7.3,2.1,10.3,2.9c8.6,2.4,13.7,3.8,13.8,3.8c3.2,0.9,4.4,2.5,4.4,3.5c0,1-1,6.2-3.5,6.5c-2.5,0.2-4.4-1.5-4.4-1.5
		s0.7,2.7,3.8,3.1c3.2,0.4,4.7-1.4,6.2-4.6c1.4-3.2,2-5.1,3.5-5.2c1.6-0.1,1.4,3.6,4.3,5.1c2.9,1.5,5.5,0.8,6.5-0.5
		c1-1.3,1.9-5.5,1.9-5.5S446,191.2,443.1,190.9z M291.7,97.1c-5.6,1.3-11.2-2.4-12.6-8.3c-1.4-5.9,2-11.7,7.6-13.1
		c5.6-1.3,11.2,2.4,12.6,8.3C300.7,89.9,297.3,95.7,291.7,97.1z"/>
	<path class="st0" d="M294.9,91.2c-1.6,2-3.7,3.2-6.1,3.1c-2.5-0.1-4.7-1.6-6.1-3.9L294.9,91.2z"/>
	<path class="st0" d="M287.1,82.2c0.3,1.2-0.4,2.3-1.5,2.6c-1.1,0.3-2.2-0.5-2.5-1.6c-0.3-1.2,0.4-2.3,1.5-2.6
		C285.7,80.4,286.8,81.1,287.1,82.2z"/>
	<path class="st0" d="M295,82.2c0.3,1.2-0.4,2.3-1.5,2.6c-1.1,0.3-2.2-0.5-2.5-1.6c-0.3-1.2,0.4-2.3,1.5-2.6
		C293.6,80.4,294.7,81.1,295,82.2z"/>
</g>
<g>
	<g>
		<path class="st1" d="M152.2,95.6c-0.1-2.9-0.2-6.4-0.2-10h-0.1c-0.8,3.1-1.8,6.6-2.7,9.4l-3,9.5h-4.3l-2.6-9.4
			c-0.8-2.9-1.6-6.3-2.2-9.5H137c-0.1,3.3-0.3,7-0.4,10l-0.5,9.2h-5.1l1.5-24.3h7.3l2.4,8.1c0.8,2.8,1.5,5.8,2.1,8.7h0.1
			c0.6-2.8,1.5-6,2.3-8.7l2.6-8.1h7.2l1.3,24.3h-5.3L152.2,95.6z"/>
		<path class="st1" d="M162.3,99.3c1.4,0.8,3.7,1.5,6.1,1.5c2.5,0,3.9-1,3.9-2.6c0-1.5-1.2-2.4-4.1-3.4c-4-1.4-6.7-3.7-6.7-7.2
			c0-4.1,3.5-7.3,9.2-7.3c2.8,0,4.8,0.5,6.2,1.2l-1.2,4.4c-0.9-0.5-2.7-1.2-5-1.2c-2.4,0-3.5,1.1-3.5,2.3c0,1.5,1.3,2.2,4.5,3.4
			c4.3,1.6,6.3,3.8,6.3,7.2c0,4.1-3.1,7.5-9.8,7.5c-2.8,0-5.5-0.8-6.9-1.5L162.3,99.3z"/>
		<path class="st1" d="M132.4,115.6c0-2.6,0-4.3-0.1-5.8h4.7l0.2,3.2h0.1c0.9-2.6,3-3.7,4.8-3.7c0.5,0,0.8,0,1.2,0.1v5.1
			c-0.4-0.1-0.9-0.1-1.5-0.1c-2,0-3.4,1.1-3.7,2.8c-0.1,0.4-0.1,0.8-0.1,1.2v8.9h-5.5V115.6z"/>
		<path class="st1" d="M150,120.3c0.1,2.3,2.4,3.3,5,3.3c1.9,0,3.4-0.3,4.9-0.8l0.7,3.7c-1.8,0.8-4,1.1-6.4,1.1c-6,0-9.4-3.5-9.4-9
			c0-4.5,2.8-9.4,8.9-9.4c5.7,0,7.8,4.4,7.8,8.8c0,0.9-0.1,1.8-0.2,2.2H150z M156.4,116.6c0-1.3-0.6-3.6-3.1-3.6
			c-2.3,0-3.2,2.1-3.4,3.6H156.4z"/>
		<path class="st1" d="M164.8,101.8h5.5v10.1h0.1c0.6-0.8,1.3-1.4,2.2-1.8c0.8-0.4,1.8-0.7,2.8-0.7c3.5,0,6.2,2.4,6.2,7.7v10.3H176
			v-9.7c0-2.3-0.8-3.9-2.8-3.9c-1.4,0-2.3,0.9-2.7,1.9c-0.1,0.3-0.2,0.8-0.2,1.2v10.4h-5.5V101.8z"/>
		<path class="st1" d="M200.5,123.1c0,1.7,0.1,3.3,0.3,4.2h-4.9l-0.3-1.8h-0.1c-1.2,1.4-3,2.2-5,2.2c-3.6,0-5.7-2.6-5.7-5.4
			c0-4.6,4.1-6.7,10.3-6.7v-0.2c0-1-0.5-2.3-3.2-2.3c-1.8,0-3.7,0.6-4.9,1.3l-1-3.5c1.2-0.7,3.6-1.6,6.8-1.6c5.9,0,7.7,3.5,7.7,7.6
			V123.1z M195.2,119.1c-2.9,0-5.1,0.7-5.1,2.8c0,1.4,0.9,2.1,2.2,2.1c1.3,0,2.5-0.9,2.8-2c0.1-0.3,0.1-0.6,0.1-0.9V119.1z"/>
		<path class="st1" d="M204.9,101.8h5.5v10h0.1c1-1.5,2.9-2.5,5.3-2.5c4.2,0,7.3,3.5,7.2,8.9c0,6.3-4,9.5-8,9.5
			c-2.1,0-4.1-0.8-5.3-2.8h-0.1l-0.2,2.4h-4.6c0.1-1.2,0.1-3.3,0.1-5.3V101.8z M210.4,119.9c0,0.4,0,0.7,0.1,1
			c0.4,1.4,1.6,2.6,3.2,2.6c2.3,0,3.8-1.8,3.8-5c0-2.7-1.2-4.9-3.8-4.9c-1.5,0-2.8,1.1-3.2,2.7c-0.1,0.3-0.1,0.6-0.1,1V119.9z"/>
		<path class="st1" d="M224.6,125c0-2,1.3-3.3,3.2-3.3c1.9,0,3.2,1.3,3.2,3.3c0,1.9-1.3,3.3-3.3,3.3
			C226,128.3,224.6,126.9,224.6,125z"/>
		<path class="st1" d="M247.6,127.4c-1,0.5-2.8,0.8-4.9,0.8c-5.7,0-9.3-3.5-9.3-9c0-5.1,3.5-9.4,10.1-9.4c1.4,0,3,0.3,4.2,0.7
			l-0.9,4.1c-0.6-0.3-1.6-0.5-3.1-0.5c-2.9,0-4.8,2.1-4.7,4.9c0,3.2,2.2,4.9,4.8,4.9c1.3,0,2.3-0.2,3.1-0.6L247.6,127.4z"/>
		<path class="st1" d="M249.2,124.7l5.5-6.9c1-1.2,1.8-2.1,2.8-3.1v-0.1h-7.7v-4.4h14.4v3.3l-5.3,6.7c-1,1.1-1.9,2.2-2.9,3.2v0.1
			h8.5v4.4h-15.3V124.7z"/>
	</g>
	<g>
		<path class="st1" d="M131.5,146.7l5-6.6c0.5-0.6,0.9-1.1,1.5-1.7v0h-6v-1.6h8.5v1.3l-5,6.5c-0.5,0.6-0.9,1.2-1.4,1.7v0h6.5v1.6h-9
			V146.7z"/>
		<path class="st1" d="M150.5,145.2c0,1,0,1.9,0.2,2.7h-1.8l-0.2-1.4h-0.1c-0.6,0.9-1.8,1.7-3.4,1.7c-2.3,0-3.4-1.6-3.4-3.2
			c0-2.7,2.4-4.2,6.7-4.1v-0.2c0-0.9-0.3-2.6-2.5-2.6c-1.1,0-2.1,0.3-2.9,0.8l-0.5-1.4c0.9-0.6,2.3-1,3.7-1c3.4,0,4.3,2.3,4.3,4.6
			V145.2z M148.5,142.2c-2.2,0-4.7,0.3-4.7,2.5c0,1.3,0.9,1.9,1.9,1.9c1.5,0,2.4-0.9,2.7-1.9c0.1-0.2,0.1-0.4,0.1-0.6V142.2z"/>
		<path class="st1" d="M153.7,140.3c0-1.4,0-2.6-0.1-3.6h1.8l0.1,1.9h0c0.8-1.4,2.1-2.2,3.9-2.2c2.7,0,4.7,2.3,4.7,5.7
			c0,4-2.5,6-5.1,6c-1.5,0-2.8-0.6-3.4-1.7h0v6h-2V140.3z M155.7,143.3c0,0.3,0,0.6,0.1,0.8c0.3,1.4,1.6,2.4,3,2.4
			c2.1,0,3.4-1.7,3.4-4.3c0-2.2-1.1-4.1-3.3-4.1c-1.4,0-2.7,1-3.1,2.5c0,0.3-0.1,0.6-0.1,0.8V143.3z"/>
		<path class="st1" d="M166.5,145.8c0.6,0.4,1.7,0.8,2.7,0.8c1.4,0,2.1-0.7,2.1-1.7c0-1-0.6-1.5-2-2c-2-0.7-3-1.8-3-3.2
			c0-1.8,1.5-3.3,3.8-3.3c1.1,0,2.1,0.3,2.7,0.7l-0.5,1.4c-0.4-0.3-1.2-0.6-2.3-0.6c-1.2,0-1.8,0.7-1.8,1.5c0,0.9,0.6,1.3,2.1,1.9
			c1.9,0.7,2.9,1.7,2.9,3.3c0,2-1.5,3.4-4.1,3.4c-1.2,0-2.3-0.3-3.1-0.8L166.5,145.8z"/>
		<path class="st1" d="M183.7,145.2c0,1,0,1.9,0.2,2.7h-1.8l-0.2-1.4h-0.1c-0.6,0.9-1.8,1.7-3.4,1.7c-2.3,0-3.4-1.6-3.4-3.2
			c0-2.7,2.4-4.2,6.7-4.1v-0.2c0-0.9-0.3-2.6-2.5-2.6c-1.1,0-2.1,0.3-2.9,0.8l-0.5-1.4c0.9-0.6,2.3-1,3.7-1c3.4,0,4.3,2.3,4.3,4.6
			V145.2z M181.8,142.2c-2.2,0-4.7,0.3-4.7,2.5c0,1.3,0.9,1.9,1.9,1.9c1.5,0,2.4-0.9,2.7-1.9c0.1-0.2,0.1-0.4,0.1-0.6V142.2z"/>
		<path class="st1" d="M187,139.7c0-1.2,0-2.1-0.1-3h1.8l0.1,1.8h0c0.6-1,1.8-2.1,3.7-2.1c1.5,0,3.9,0.9,3.9,4.7v6.6h-2v-6.4
			c0-1.8-0.7-3.3-2.6-3.3c-1.3,0-2.3,0.9-2.7,2.1c-0.1,0.3-0.1,0.6-0.1,0.9v6.7h-2V139.7z"/>
		<path class="st1" d="M200.2,136.7l2.4,6.6c0.3,0.7,0.6,1.6,0.7,2.3h0c0.2-0.7,0.4-1.5,0.7-2.3l2.2-6.5h2.1l-3,7.9
			c-1.4,3.8-2.4,5.7-3.8,7c-1,0.9-2,1.2-2.5,1.3l-0.5-1.7c0.5-0.2,1.2-0.5,1.8-1c0.6-0.4,1.2-1.2,1.7-2.3c0.1-0.2,0.2-0.4,0.2-0.5
			c0-0.1,0-0.3-0.2-0.5l-4.1-10.3H200.2z M206.5,131.9l-2.8,3.3h-1.4l2-3.3H206.5z"/>
		<path class="st1" d="M132.5,167.2c0.6,0.4,1.7,0.8,2.7,0.8c1.4,0,2.1-0.7,2.1-1.7c0-1-0.6-1.5-2-2c-2-0.7-3-1.8-3-3.2
			c0-1.8,1.5-3.3,3.8-3.3c1.1,0,2.1,0.3,2.7,0.7l-0.5,1.4c-0.4-0.3-1.2-0.6-2.3-0.6c-1.2,0-1.8,0.7-1.8,1.5c0,0.9,0.6,1.3,2.1,1.9
			c1.9,0.7,2.9,1.7,2.9,3.3c0,2-1.5,3.4-4.1,3.4c-1.2,0-2.3-0.3-3.1-0.8L132.5,167.2z"/>
		<path class="st1" d="M141.9,161.8c0-1.4,0-2.6-0.1-3.6h1.8l0.1,1.9h0c0.8-1.4,2.1-2.2,3.9-2.2c2.7,0,4.7,2.3,4.7,5.7
			c0,4-2.5,6-5.1,6c-1.5,0-2.8-0.6-3.4-1.7h0v6h-2V161.8z M143.9,164.8c0,0.3,0,0.6,0.1,0.8c0.3,1.4,1.6,2.4,3,2.4
			c2.1,0,3.4-1.7,3.4-4.3c0-2.2-1.1-4.1-3.3-4.1c-1.4,0-2.7,1-3.1,2.5c0,0.3-0.1,0.6-0.1,0.8V164.8z"/>
		<path class="st1" d="M159.5,169.6c-3,0-5.3-2.2-5.3-5.7c0-3.7,2.5-5.9,5.5-5.9c3.2,0,5.4,2.3,5.4,5.7
			C165,167.8,162.2,169.6,159.5,169.6L159.5,169.6z M159.6,168c1.9,0,3.4-1.8,3.4-4.3c0-1.9-0.9-4.3-3.3-4.3c-2.4,0-3.4,2.2-3.4,4.3
			C156.2,166.2,157.6,168,159.6,168L159.6,168z"/>
		<path class="st1" d="M167.6,153h2v16.3h-2V153z"/>
		<path class="st1" d="M174.2,164.1c0,2.7,1.8,3.8,3.8,3.8c1.4,0,2.3-0.3,3.1-0.6l0.4,1.4c-0.7,0.3-2,0.7-3.7,0.7
			c-3.4,0-5.5-2.3-5.5-5.6c0-3.4,2-6,5.2-6c3.6,0,4.6,3.2,4.6,5.2c0,0.4,0,0.7-0.1,0.9H174.2z M180.1,162.7c0-1.3-0.5-3.3-2.8-3.3
			c-2.1,0-2.9,1.9-3.1,3.3H180.1z"/>
		<path class="st1" d="M186.6,163.3L186.6,163.3c0.3-0.4,0.7-0.9,1-1.3l3.3-3.8h2.4l-4.3,4.6l4.9,6.6h-2.5l-3.8-5.3l-1,1.1v4.2h-2
			V153h2V163.3z"/>
	</g>
</g>
</svg>
