<svg xmlns="http://www.w3.org/2000/svg" width="18.594" height="21.562" viewBox="0 0 18.594 21.562">
  <defs>
    <style>
      .cls-1 {
        fill: #b9453d;
        fill-rule: evenodd;
      }
    </style>
  </defs>
  <path class="cls-1" d="M320.412,633.684l1.435-1.384-1.353-1.407L319,632.33a9.253,9.253,0,0,0-4.2-1.833v-1.121h1.515v-1.953h-6.03v1.953H311.8V630.5A9.308,9.308,0,1,0,320.412,633.684Zm-7.11,13.507a7.5,7.5,0,1,1,7.5-7.5A7.507,7.507,0,0,1,313.3,647.191Zm0.6-8.685-0.75-5.66-0.75,5.66A1.321,1.321,0,1,0,313.9,638.506Z" transform="translate(-304 -627.438)"/>
</svg>
