<?xml version="1.0" encoding="utf-8"?>
<!-- Generator: Adobe Illustrator 26.0.3, SVG Export Plug-In . SVG Version: 6.00 Build 0)  -->
<svg version="1.1" id="Layer_4" xmlns="http://www.w3.org/2000/svg" xmlns:xlink="http://www.w3.org/1999/xlink" x="0px" y="0px"
	 viewBox="0 0 3999.1 1664.3" style="enable-background:new 0 0 3999.1 1664.3;" xml:space="preserve">
<style type="text/css">
	.st0{fill:none;stroke:#FFFFFF;stroke-width:8.3216;}
	.st1{fill:none;stroke:#FFFFFF;stroke-width:8.3216;stroke-dasharray:7.93,7.93;}
	.st2{fill:#9FDCF4;}
	.st3{fill:#3DA4D7;stroke:#FFFFFF;stroke-width:8.3216;}
</style>
<g>
	<path class="st0" d="M211.1,353.3c55.9,0,101.2,45.3,101.2,101.2c0,55.9-45.3,101.2-101.2,101.2c-55.9,0-101.2-45.3-101.2-101.2"/>
	<g>
		<path class="st0" d="M109.9,454.5c0-1.4,0-2.8,0.1-4.2"/>
		<path class="st1" d="M110.6,442.5c5.7-47.6,44.3-85,92.4-88.9"/>
		<path class="st0" d="M207,353.4c1.4-0.1,2.8-0.1,4.2-0.1"/>
	</g>
	<path class="st2" d="M283.2,454.5c0,39.8-32.3,72.1-72.1,72.1c-39.8,0-72.1-32.3-72.1-72.1c0-39.8,32.3-72.1,72.1-72.1
		C251,382.4,283.2,414.7,283.2,454.5z"/>
	<polygon class="st3" points="261.3,468.5 261.3,440.5 225.1,440.5 225.1,404.4 197.1,404.4 197.1,440.5 161,440.5 161,468.5 
		197.1,468.5 197.1,504.7 225.1,504.7 225.1,468.5 	"/>
</g>
</svg>
