<?xml version="1.0" encoding="utf-8"?>
<!-- Generator: Adobe Illustrator 26.0.3, SVG Export Plug-In . SVG Version: 6.00 Build 0)  -->
<svg version="1.1" id="Layer_4" xmlns="http://www.w3.org/2000/svg" xmlns:xlink="http://www.w3.org/1999/xlink" x="0px" y="0px"
	 viewBox="0 0 3999.1 1664.3" style="enable-background:new 0 0 3999.1 1664.3;" xml:space="preserve">
<style type="text/css">
	.st0{fill:none;stroke:#FFFFFF;stroke-width:8.3216;stroke-linejoin:round;}
	.st1{fill:none;stroke:#FFFFFF;stroke-width:8.3216;}
	.st2{fill:none;stroke:#FFFFFF;stroke-width:8.3216;stroke-dasharray:8.5079,8.5079;}
	.st3{fill:#9FDCF4;}
	.st4{fill:none;stroke:#FFFFFF;stroke-width:12.4824;}
</style>
<g>
	<path class="st0" d="M-73.3,566.2v-68.7c13.5-13.5,21.8-32.1,21.8-52.6c0-41.1-33.3-74.5-74.5-74.5c-41.1,0-74.5,33.4-74.5,74.5
		c0,1.1,0,2.2,0.1,3.4l-10.4,18l-13.7,23.7h17.3v29.4c0,11.1,9,20.1,20.1,20.1h31.8v26.8"/>
</g>
<g>
	<path class="st1" d="M-126.9,390.8c29.9,0,54.1,24.2,54.1,54.1c0,29.9-24.2,54.1-54.1,54.1c-29.9,0-54.1-24.2-54.1-54.1"/>
	<g>
		<path class="st1" d="M-181,444.8c0-1.4,0.1-2.8,0.2-4.2"/>
		<path class="st2" d="M-179.5,432.3c5-21.1,22.5-37.5,44.2-40.8"/>
		<path class="st1" d="M-131.1,390.9c1.4-0.1,2.8-0.2,4.2-0.2"/>
	</g>
</g>
<path class="st3" d="M-88.4,444.8c0,21.3-17.2,38.5-38.5,38.5c-21.3,0-38.5-17.2-38.5-38.5c0-21.3,17.2-38.5,38.5-38.5
	C-105.7,406.3-88.4,423.5-88.4,444.8z"/>
<g>
	<line class="st4" x1="-105.8" y1="444.8" x2="-148.1" y2="444.8"/>
	<line class="st4" x1="-126.9" y1="466" x2="-126.9" y2="423.7"/>
</g>
</svg>
